<?xml version="1.0" encoding="UTF-8"?>
<svg width="54px" height="54px" viewBox="0 0 54 54" version="1.1" xmlns="http://www.w3.org/2000/svg" xmlns:xlink="http://www.w3.org/1999/xlink">
    <!-- Generator: Sketch 50.2 (55047) - http://www.bohemiancoding.com/sketch -->
    <title>Search Copy</title>
    <desc>Created with Sketch.</desc>
    <defs></defs>
    <g id="ChatBot" stroke="none" stroke-width="1" fill="none" fill-rule="evenodd">
        <g id="Search" fill="#FFFFFF">
            <path d="M53.5329367,51.2456784 L40.407261,38.1230263 C43.9280499,34.0761805 46.0596249,28.7956297 46.0596249,23.0247699 C46.0596249,10.3211854 35.7245025,0 23.0298124,0 C10.3234458,0 0,10.3328594 0,23.0247699 C0,35.7166804 10.3351223,46.0495398 23.0298124,46.0495398 C28.8019361,46.0495398 34.0836434,43.9184315 38.1313754,40.3984135 L51.2569014,53.5212153 C51.5685764,53.8322233 51.9878854,54 52.3949191,54 C52.8019528,54 53.2212618,53.844496 53.5329367,53.5212153 C54.1556878,52.8984509 54.1556878,51.8684427 53.5329367,51.2456784 Z M2.25,22.4937235 C2.25,11.3244506 11.3396835,2.25 22.5003063,2.25 C33.6722607,2.25 42.75,11.3370036 42.75,22.4937235 C42.75,33.6504434 33.6722607,42.75 22.5003063,42.75 C11.3396835,42.75 2.25,33.6629964 2.25,22.4937235 Z" id="magnifying-glass"></path>
        </g>
    </g>
</svg>