<?xml version="1.0" encoding="UTF-8"?>
<svg width="43px" height="60px" viewBox="0 0 43 60" version="1.1" xmlns="http://www.w3.org/2000/svg" xmlns:xlink="http://www.w3.org/1999/xlink">
    <!-- Generator: Sketch 50.2 (55047) - http://www.bohemiancoding.com/sketch -->
    <title>Agent</title>
    <desc>Created with Sketch.</desc>
    <defs></defs>
    <g id="ChatBot" stroke="none" stroke-width="1" fill="none" fill-rule="evenodd">
        <g id="Artboard" transform="translate(-238.000000, -197.000000)" fill="#FFFFFF">
            <g id="Agent" transform="translate(238.000000, 197.000000)">
                <path d="M18,36 L18,39 L24,39 L24,36.0090599 C23.0172167,36.176088 22.0198621,36.2676165 21.0178238,36.2676165 C20.0025153,36.2676165 18.9960536,36.1714418 18,36 Z" id="Fill-1"></path>
                <path d="M39.8195167,34.2712779 L31.7655819,32.1428571 C31.2457368,32.7202198 30.7018675,33.2462479 30.1395965,33.7316613 L39.1972702,36.1250588 C40.0796948,36.358631 40.6741685,37.064028 40.6741685,37.8808512 L40.6741685,41.0113524 C40.6741685,49.849198 33.0467077,57.1359854 23.3194204,57.9805897 L25.5898023,53.2292757 L23.4066576,40.2929708 L19.4504852,40.2929708 L17.2675109,53.2292757 L19.5377224,57.9805897 C9.81043518,57.1359854 2.18297432,49.849198 2.18297432,41.0113524 L2.18297432,37.8808512 C2.18297432,37.064028 2.77812959,36.358631 3.66259882,36.1250588 L12.7163536,33.7328691 C12.1532308,33.2468518 11.6095318,32.7208237 11.0869606,32.144065 L3.03762615,34.2708249 C1.23461067,34.7467264 0,36.2147433 0,37.8808512 L0,41.0113524 C0,51.4982447 9.59285337,60 21.4286566,60 C33.2642895,60 42.8571429,51.4982447 42.8571429,41.0113524 L42.8571429,37.8808512 C42.8571429,36.2147433 41.6232137,34.7473303 39.8195167,34.2712779 Z" id="Fill-2"></path>
                <path d="M8.9239874,25.682266 C11.1414957,29.9333799 15.2200549,34.2857143 20.3558687,34.2857143 C25.4869701,34.2857143 29.5656976,29.9398472 31.7837108,25.691591 C33.5417626,25.383718 35.208933,23.9221109 35.9886625,21.9250725 C36.9503233,19.4440404 36.2831859,17.0176041 34.4956817,16.0294627 C34.4975329,15.9890045 34.5126799,15.9508024 34.5061162,15.9089907 C34.4764956,15.7005334 34.3522909,15.5307295 34.1754086,15.4191312 C34.7144704,14.6635113 35.1207443,13.4714247 35.0892724,11.6101994 C35.0768183,10.9263213 35.009667,10.1573156 34.8617321,9.27776443 C33.6824606,2.26827706 21.0277185,-3.24606356 15.4561784,2.21307951 C15.4561784,2.21307951 11.1874413,1.44993953 8.08838262,5.36385198 C6.83926707,6.93961422 5.04519919,10.0956508 5.20104411,12.7440804 C5.26213667,13.7845618 5.61590127,14.7492405 6.43501275,15.505462 C6.32124259,15.6146539 6.23322219,15.7480605 6.21016522,15.9089907 C6.20360156,15.951404 6.21874847,15.9900574 6.22076806,16.0306659 C5.40148828,16.4871361 4.77642561,17.2508777 4.48308037,18.2420272 C4.15254103,19.3641769 4.23921504,20.6731259 4.72778719,21.9250725 C5.49826024,23.9033106 7.13850278,25.356796 8.9239874,25.682266 Z M16.2476889,9.27776443 C16.2476889,9.27776443 27.6728382,16.1834744 28.8418434,11.8475338 C28.8418434,11.8475338 30.8949235,13.1806975 31.682563,15.878459 C30.8462851,16.3009384 30.1762865,16.8607348 29.6819922,17.3648825 C28.9450107,16.1305329 27.5045391,15.2792573 25.8328247,15.2792573 C24.1885429,15.2792573 22.769277,16.1034605 22.0191682,17.3050225 C20.9560231,16.9565409 19.7602583,16.9565409 18.6966083,17.3050225 C17.9470044,16.1034605 16.5277385,15.2792573 14.8834568,15.2792573 C13.2117423,15.2792573 11.7712707,16.1305329 11.0342892,17.3648825 C10.5479049,16.8708117 9.8989438,16.3197386 9.08437639,15.9002673 C9.74309888,14.1407138 11.7121978,10.1490435 16.2476889,9.27776443 Z M23.6304633,18.2078859 C23.5646584,18.1504324 23.4890921,18.1098238 23.4200895,18.0564311 C23.8849314,17.2755436 24.7757383,16.7238689 25.8328247,16.7238689 C27.3554262,16.7238689 28.5952853,17.8314296 28.5952853,19.1931697 C28.5952853,20.5544587 27.354753,21.6618689 25.8328247,21.6618689 C24.3989167,21.6618689 23.2556613,20.6684634 23.1210221,19.4175696 C23.3037948,19.4035822 23.4870725,19.3547015 23.6284437,19.229567 C23.9440044,18.9475632 23.946024,18.4898898 23.6304633,18.2078859 Z M17.0878377,19.229567 C17.2292089,19.3547015 17.4119817,19.4035822 17.5954277,19.4175696 C17.4624714,20.6684634 16.3173647,21.6618689 14.8834568,21.6618689 C13.3608553,21.6618689 12.120323,20.5544587 12.120323,19.1931697 C12.120323,17.8314296 13.3608553,16.7238689 14.8834568,16.7238689 C15.9407114,16.7238689 16.8308451,17.2755436 17.2961919,18.0564311 C17.2265161,18.1098238 17.1509499,18.1504324 17.0858181,18.2078859 C16.7695842,18.4898898 16.7716038,18.9475632 17.0878377,19.229567 Z M10.5117206,19.1227816 C10.509701,19.1468459 10.5031374,19.1685038 10.5031374,19.1931697 C10.5031374,21.3511383 12.4681971,23.1072326 14.8827836,23.1072326 C17.2982115,23.1072326 19.262598,21.3517399 19.262598,19.1931697 C19.262598,19.0122361 19.2291065,18.8395745 19.20403,18.6651082 C19.9364674,18.4047622 20.7786359,18.4047622 21.5115782,18.6651082 C21.48667,18.8395745 21.4525053,19.0122361 21.4525053,19.1931697 C21.4525053,21.3511383 23.4173967,23.1072326 25.8328247,23.1072326 C28.2475794,23.1072326 30.2124708,21.3517399 30.2124708,19.1931697 C30.2124708,19.1685038 30.2059072,19.1468459 30.2040559,19.1227816 C30.443882,18.7912955 31.1894468,17.8642173 32.257136,17.2567434 C32.4234155,17.393158 32.6337893,17.4912202 32.8737837,17.5118253 C32.9394203,17.5170893 33.0717034,17.5294223 33.1413792,17.5504786 C34.0952982,17.8478234 34.6639807,19.4581781 33.9519074,21.2923311 C33.3096782,22.9368271 32.0040142,23.8238983 31.0776962,23.8238983 L31.0566589,23.8238983 C30.6293476,23.8238983 30.2393987,24.0507046 30.0692483,24.4026454 C28.1928822,28.2490274 24.6554045,32.3586129 20.3558687,32.3586129 C16.0556596,32.3586129 12.5181819,28.2490274 10.6418158,24.4026454 C10.4714972,24.0507046 10.0376222,23.8238983 9.60845964,23.8238983 C8.70704992,23.8238983 7.40340548,22.9368271 6.7630276,21.2923311 C6.41986583,20.4099223 6.34884364,19.47758 6.5671275,18.7338419 C6.67500719,18.3754338 6.94445397,17.7449484 7.57170453,17.5504786 C7.63936075,17.5294223 7.77147551,17.5170893 7.83728043,17.5118253 C8.07929447,17.4912202 8.29017318,17.393158 8.45662094,17.255089 C9.5261614,17.8625628 10.2697066,18.7912955 10.5117206,19.1227816 Z" id="Fill-4"></path>
            </g>
        </g>
    </g>
</svg>